<svg width="80" height="80" viewBox="0 0 80 80" fill="none" xmlns="http://www.w3.org/2000/svg">
<rect width="80" height="80" rx="40" fill="#E3E3E3" fill-opacity="0.45"/>
<path d="M29.875 36C28.4931 36.0102 27.6616 36.0526 26.9993 36.228C23.9849 37.0262 21.9211 39.7278 22.0023 42.7694C22.0259 43.6504 22.3612 44.7392 23.032 46.917C24.6463 52.158 27.3593 56.7078 33.4369 57.7994C34.5541 58 35.8112 58 38.3254 58H41.6746C44.1888 58 45.446 58 46.5632 57.7994C52.6408 56.7078 55.3538 52.158 56.968 46.917C57.6388 44.7392 57.9742 43.6504 57.9976 42.7694C58.079 39.7278 56.0152 37.0262 53.0008 36.228C52.3384 36.0526 51.5068 36.0102 50.125 36" stroke="black" stroke-width="3" stroke-linecap="round"/>
<path d="M40 22V44M40 22C40.9368 22 41.6488 22.8762 43.0728 24.6286L45 27M40 22C39.0632 22 38.3512 22.8762 36.9272 24.6286L35 27" stroke="black" stroke-width="3" stroke-linecap="round" stroke-linejoin="round"/>
</svg>
