<svg width="80" height="80" viewBox="0 0 80 80" fill="none" xmlns="http://www.w3.org/2000/svg">
<rect width="80" height="80" rx="40" fill="#E3E3E3" fill-opacity="0.45"/>
<path d="M48 34C48 26.268 41.732 20 34 20C26.268 20 20 26.268 20 34C20 41.732 26.268 48 34 48" stroke="black" stroke-width="3"/>
<path d="M48 34H46C40.3432 34 37.5148 34 35.7574 35.7574C34 37.5148 34 40.3432 34 46V48C34 53.6568 34 56.4852 35.7574 58.2426C37.5148 60 40.3432 60 46 60H48C53.6568 60 56.4852 60 58.2426 58.2426C60 56.4852 60 53.6568 60 48V46C60 40.3432 60 37.5148 58.2426 35.7574C56.4852 34 53.6568 34 48 34Z" stroke="black" stroke-width="3"/>
</svg>
